<svg width="641" height="333" viewBox="0 0 641 333" fill="none" xmlns="http://www.w3.org/2000/svg">
<rect x="47.5" y="20.5" width="587" height="297" stroke="#9ECCED"/>
<line x1="134.5" y1="20" x2="134.5" y2="318" stroke="#0EAAFF"/>
<line x1="382.5" y1="20" x2="382.5" y2="318" stroke="#0EAAFF"/>
<line x1="462.5" y1="20" x2="462.5" y2="318" stroke="#0EAAFF"/>
<line x1="553.5" y1="20" x2="553.5" y2="318" stroke="#0EAAFF"/>
<line x1="302.5" y1="20" x2="302.5" y2="318" stroke="#0EAAFF"/>
<line x1="218.5" y1="20" x2="218.5" y2="318" stroke="#0EAAFF"/>
<line x1="47" y1="81.5" x2="635" y2="81.5" stroke="#0EAAFF"/>
<line x1="47" y1="143.5" x2="635" y2="143.5" stroke="#0EAAFF"/>
<line x1="47" y1="199.5" x2="635" y2="199.5" stroke="#0EAAFF"/>
<line x1="47" y1="258.5" x2="635" y2="258.5" stroke="#0EAAFF"/>
<g filter="url(#filter0_dd_131_180)">
<rect x="135.855" y="45.6741" width="378.599" height="225.303" rx="10" transform="rotate(8.72473 135.855 45.6741)" fill="white"/>
</g>
<circle cx="187" cy="115" r="25" transform="rotate(8.40669 187 115)" fill="url(#paint0_linear_131_180)"/>
<rect x="217.245" y="107" width="159.673" height="8.4895" rx="4.24475" transform="rotate(8.43419 217.245 107)" fill="#D9D9D9"/>
<rect x="156.245" y="160" width="320.994" height="8.4895" rx="4.24475" transform="rotate(8.43419 156.245 160)" fill="#D9D9D9"/>
<rect x="154.245" y="177" width="320.994" height="8.4895" rx="4.24475" transform="rotate(8.43419 154.245 177)" fill="#D9D9D9"/>
<rect x="153.245" y="197" width="182.395" height="8.4895" rx="4.24475" transform="rotate(8.43419 153.245 197)" fill="#D9D9D9"/>
<rect x="216.245" y="121" width="87.0651" height="8.4895" rx="4.24475" transform="rotate(8.43419 216.245 121)" fill="#D9D9D9"/>
<g clip-path="url(#clip0_131_180)">
<path d="M205.196 247.007L205.221 247.011C205.249 247.015 205.277 247.021 205.307 247.028L205.196 247.007ZM205.196 247.007C205.461 247.045 205.707 247.167 205.898 247.355C205.942 247.399 205.982 247.445 206.019 247.495L205.922 247.38L205.93 247.39L206.019 247.495L208.139 250.325C208.806 251.216 208.064 252.47 206.961 252.311L205.724 252.134L204.837 258.321C204.793 258.624 204.862 258.932 205.031 259.188C205.2 259.443 205.457 259.627 205.753 259.706L205.896 259.735L209.608 260.268C209.924 260.313 210.21 260.478 210.408 260.727C210.606 260.976 210.702 261.292 210.675 261.61C210.649 261.927 210.502 262.222 210.265 262.435C210.028 262.648 209.718 262.762 209.4 262.755L209.254 262.742L205.542 262.21C204.595 262.074 203.736 261.582 203.14 260.834C202.544 260.085 202.257 259.138 202.337 258.185L202.362 257.966L203.249 251.779L202.012 251.602C200.957 251.451 200.582 250.152 201.331 249.455L201.44 249.364L204.269 247.244L204.384 247.169C204.628 247.024 204.915 246.967 205.196 247.007ZM215.095 248.427C216.042 248.562 216.901 249.055 217.497 249.803C218.092 250.551 218.38 251.499 218.3 252.452L218.275 252.671L217.387 258.858L218.625 259.035C219.679 259.186 220.055 260.485 219.306 261.182L219.197 261.273L216.367 263.393C216.102 263.591 215.768 263.677 215.44 263.63L215.401 263.624L215.335 263.609L215.44 263.63C215.175 263.592 214.929 263.47 214.739 263.282C214.695 263.238 214.654 263.191 214.618 263.142L214.715 263.257C214.68 263.22 214.648 263.182 214.618 263.142L212.498 260.312C211.83 259.421 212.573 258.167 213.675 258.325L214.913 258.502L215.8 252.316C215.843 252.013 215.774 251.705 215.605 251.449C215.436 251.194 215.179 251.009 214.883 250.931L214.74 250.901L211.028 250.369C210.713 250.323 210.427 250.159 210.228 249.91C210.03 249.66 209.934 249.345 209.961 249.027C209.988 248.71 210.135 248.414 210.372 248.202C210.609 247.989 210.918 247.875 211.237 247.882L211.383 247.894L215.095 248.427Z" fill="#6E6C6C"/>
</g>
<g clip-path="url(#clip1_131_180)">
<path d="M146.293 250.077C147.749 250.359 149.256 250.201 150.623 249.626C151.991 249.05 153.156 248.082 153.973 246.844C154.79 245.606 155.222 244.154 155.213 242.67C155.205 241.187 154.757 239.739 153.926 238.511C153.094 237.282 151.917 236.328 150.544 235.768C149.17 235.208 147.661 235.068 146.208 235.366C144.755 235.664 143.423 236.386 142.38 237.441C141.337 238.495 140.63 239.836 140.349 241.292C140.114 242.51 140.188 243.714 140.516 244.827L138.928 248.657L143.074 248.608C143.984 249.326 145.076 249.843 146.293 250.077Z" stroke="#6E6C6C" stroke-width="1.5" stroke-linecap="round" stroke-linejoin="round"/>
</g>
<g clip-path="url(#clip2_131_180)">
<path d="M335.284 281.837L334.305 281.636C334.11 281.596 333.939 281.48 333.829 281.314C333.72 281.148 333.681 280.945 333.72 280.751L334.624 276.342C334.664 276.147 334.78 275.976 334.946 275.867C335.112 275.757 335.315 275.718 335.51 275.758L336.489 275.959C336.684 275.999 336.855 276.115 336.965 276.281C337.074 276.447 337.113 276.65 337.073 276.844L336.17 281.253C336.13 281.448 336.014 281.619 335.848 281.728C335.682 281.838 335.479 281.877 335.284 281.837ZM342.141 283.243L341.162 283.042C340.967 283.002 340.796 282.886 340.686 282.72C340.577 282.554 340.538 282.352 340.578 282.157L342.084 274.81C342.124 274.615 342.24 274.444 342.406 274.334C342.572 274.225 342.775 274.186 342.97 274.226L343.949 274.426C344.144 274.466 344.315 274.582 344.425 274.748C344.534 274.914 344.573 275.117 344.533 275.312L343.027 282.659C342.987 282.854 342.871 283.025 342.705 283.134C342.539 283.244 342.336 283.283 342.141 283.243ZM345.57 283.946L344.59 283.745C344.396 283.705 344.225 283.589 344.115 283.423C344.006 283.257 343.966 283.055 344.006 282.86L346.216 272.084C346.256 271.889 346.372 271.718 346.538 271.609C346.704 271.499 346.907 271.46 347.101 271.5L348.081 271.701C348.276 271.741 348.447 271.857 348.556 272.023C348.666 272.189 348.705 272.391 348.665 272.586L346.455 283.362C346.416 283.557 346.3 283.728 346.134 283.837C345.968 283.947 345.765 283.986 345.57 283.946ZM338.713 282.54L337.733 282.339C337.538 282.299 337.367 282.183 337.258 282.017C337.148 281.851 337.109 281.648 337.149 281.454L339.861 268.229C339.901 268.034 340.017 267.863 340.183 267.753C340.349 267.644 340.552 267.605 340.746 267.645L341.726 267.846C341.921 267.886 342.092 268.001 342.201 268.167C342.311 268.333 342.35 268.536 342.31 268.731L339.598 281.956C339.558 282.151 339.442 282.322 339.276 282.431C339.11 282.541 338.908 282.58 338.713 282.54Z" fill="#6E6C6C"/>
</g>
<path d="M286.579 267.973L279.408 273.068L274.245 265.946C273.903 265.484 273.661 264.955 273.533 264.394C273.406 263.833 273.396 263.252 273.504 262.687C273.612 262.122 273.836 261.586 274.162 261.112C274.487 260.637 274.908 260.236 275.396 259.932C275.885 259.628 276.431 259.429 277 259.347C277.569 259.265 278.15 259.301 278.704 259.454C279.259 259.607 279.775 259.873 280.222 260.236C280.669 260.598 281.035 261.049 281.299 261.56C281.713 261.164 282.205 260.857 282.743 260.66C283.282 260.462 283.855 260.378 284.427 260.412C285 260.446 285.559 260.598 286.07 260.858C286.581 261.118 287.033 261.481 287.397 261.924C287.761 262.367 288.03 262.88 288.187 263.432C288.344 263.983 288.385 264.561 288.308 265.129C288.232 265.698 288.038 266.244 287.741 266.734C287.443 267.224 287.047 267.648 286.578 267.978" stroke="#6E6C6C" stroke-width="2" stroke-linecap="round" stroke-linejoin="round"/>
<g filter="url(#filter1_dd_131_180)">
<rect x="406.844" y="51" width="169.309" height="64.8461" rx="10" transform="rotate(9.62666 406.844 51)" fill="white"/>
</g>
<circle cx="441.386" cy="90.3863" r="25" transform="rotate(8.40669 441.386 90.3863)" fill="url(#paint1_linear_131_180)"/>
<rect x="475.483" y="89" width="70.2162" height="8.4895" rx="4.24475" transform="rotate(9.66835 475.483 89)" fill="#D9D9D9"/>
<rect x="474.426" y="102.912" width="48.4319" height="8.4895" rx="4.24475" transform="rotate(9.66835 474.426 102.912)" fill="#D9D9D9"/>
<path d="M412.087 296.822L408.119 297.724C407.547 297.854 407.052 297.717 406.634 297.313C406.215 296.91 406.058 296.425 406.163 295.859L408.241 284.613C408.325 284.16 408.547 283.81 408.906 283.563C409.266 283.317 409.672 283.235 410.124 283.318L418.747 284.911C419.2 284.995 419.549 285.217 419.797 285.576C420.044 285.936 420.126 286.342 420.042 286.794L417.963 298.039C417.859 298.606 417.539 299.003 417.004 299.23C416.469 299.458 415.958 299.409 415.47 299.083L412.087 296.822Z" fill="#6E6C6C"/>
<path d="M449.168 291.041L447.666 299.407M451.767 293.54L449.345 290.057L445.862 292.48M441.041 296.695L440.158 301.616C440.064 302.138 440.182 302.676 440.485 303.111C440.788 303.547 441.251 303.844 441.773 303.938L451.616 305.704C452.138 305.798 452.676 305.68 453.112 305.377C453.547 305.075 453.844 304.611 453.938 304.089L454.821 299.168" stroke="#6E6C6C" stroke-width="2" stroke-linecap="round" stroke-linejoin="round"/>
<path d="M15.981 205.239L33.0742 192.689L35.2931 195.712L18.1999 208.261L15.981 205.239Z" fill="white"/>
<path d="M32.0751 220.43C31.8403 220.395 31.6143 220.315 31.4093 220.196C31.1242 220.028 30.8885 219.788 30.7261 219.5C30.5637 219.212 30.4804 218.886 30.4846 218.555L30.62 205.298L34.4062 205.347L34.299 215.327L41.0454 211.41L43.1818 197.473C43.2178 197.229 43.3016 196.994 43.4284 196.783C43.5553 196.571 43.7227 196.387 43.921 196.24L52.6204 189.853C54.4113 188.547 55.9256 186.9 57.0756 185.005C58.2256 183.111 58.9885 181.007 59.3201 178.816L59.8485 175.368L56.4013 174.84C54.2113 174.5 51.9756 174.598 49.8236 175.127C47.6716 175.657 45.646 176.608 43.864 177.926L35.1645 184.313C34.965 184.458 34.7388 184.562 34.4989 184.62C34.2589 184.678 34.01 184.687 33.7663 184.648L19.8291 182.512L14.0657 187.812L23.6198 190.7L22.5326 194.327L9.84325 190.485C9.52651 190.39 9.24054 190.213 9.01433 189.971C8.78813 189.73 8.62974 189.433 8.55525 189.111C8.47957 188.787 8.49176 188.448 8.59056 188.13C8.68936 187.811 8.8712 187.525 9.11735 187.301L17.9512 179.17C18.156 178.975 18.4024 178.828 18.6719 178.741C18.9415 178.654 19.2272 178.63 19.5077 178.669L33.5746 180.825L41.6356 174.891C43.8157 173.281 46.2936 172.12 48.9258 171.475C51.558 170.83 54.2921 170.714 56.9695 171.133L60.4167 171.662C61.3998 171.812 62.2828 172.347 62.8714 173.149C63.4599 173.951 63.7059 174.953 63.5552 175.936L63.0268 179.384C62.6252 182.064 61.6955 184.638 60.2917 186.956C58.8879 189.274 57.0378 191.29 54.8487 192.888L46.772 198.801L44.6157 212.868C44.5718 213.146 44.4657 213.411 44.3054 213.643C44.1451 213.874 43.9347 214.067 43.6898 214.206L33.2867 220.199C32.9205 220.41 32.4935 220.492 32.0751 220.43Z" fill="white"/>
<path d="M109.991 306.62L118.537 300.345L119.647 301.856L111.1 308.131L109.991 306.62Z" fill="white"/>
<path d="M118.038 314.215C117.92 314.197 117.807 314.158 117.705 314.098C117.562 314.014 117.444 313.894 117.363 313.75C117.282 313.606 117.24 313.443 117.242 313.278L117.31 306.649L119.203 306.673L119.15 311.664L122.523 309.705L123.591 302.737C123.609 302.615 123.651 302.497 123.714 302.391C123.778 302.286 123.861 302.193 123.961 302.12L128.31 298.926C129.206 298.274 129.963 297.45 130.538 296.503C131.113 295.555 131.494 294.503 131.66 293.408L131.924 291.684L130.201 291.42C129.106 291.25 127.988 291.299 126.912 291.564C125.836 291.829 124.823 292.304 123.932 292.963L119.582 296.156C119.483 296.229 119.37 296.281 119.25 296.31C119.13 296.339 119.005 296.344 118.883 296.324L111.915 295.256L109.033 297.906L113.81 299.35L113.266 301.163L106.922 299.242C106.763 299.195 106.62 299.106 106.507 298.986C106.394 298.865 106.315 298.717 106.278 298.556C106.24 298.393 106.246 298.224 106.295 298.065C106.345 297.906 106.436 297.763 106.559 297.65L110.976 293.585C111.078 293.487 111.201 293.414 111.336 293.37C111.471 293.327 111.614 293.315 111.754 293.334L118.787 294.413L122.818 291.445C123.908 290.64 125.147 290.06 126.463 289.737C127.779 289.415 129.146 289.357 130.485 289.567L132.208 289.831C132.7 289.906 133.142 290.174 133.436 290.575C133.73 290.975 133.853 291.477 133.778 291.968L133.514 293.692C133.313 295.032 132.848 296.319 132.146 297.478C131.444 298.637 130.519 299.645 129.424 300.444L125.386 303.401L124.308 310.434C124.286 310.573 124.233 310.706 124.153 310.821C124.073 310.937 123.967 311.033 123.845 311.103L118.643 314.099C118.46 314.205 118.247 314.246 118.038 314.215Z" fill="white"/>
<path d="M619.736 294.341L618.045 300.557C618.045 300.557 613.358 300.461 608.704 298.802C604.05 297.143 604.275 286.208 604.275 286.208M619.736 294.341L626.113 288.221M619.736 294.341C619.736 294.341 604.243 287.77 599.717 279.863C595.192 271.956 595.385 262.583 595.385 262.583C595.385 262.583 604.758 262.776 612.472 267.623C620.186 272.471 626.113 288.221 626.113 288.221M626.113 288.221L632.394 286.787C632.394 286.787 632.49 282.101 631.025 277.382C629.559 272.664 618.624 272.438 618.624 272.438" stroke="white" stroke-width="1.5" stroke-linecap="round" stroke-linejoin="round"/>
<path d="M633.634 302.441L630.639 296.128L627.45 299.188L633.634 302.441Z" fill="white" stroke="white" stroke-width="1.5" stroke-linecap="round" stroke-linejoin="round"/>
<path d="M609.187 275.369C609.205 274.507 608.52 273.793 607.657 273.775C606.794 273.757 606.08 274.442 606.062 275.305C606.045 276.168 606.73 276.882 607.592 276.899C608.455 276.917 609.169 276.232 609.187 275.369Z" fill="white" stroke="white" stroke-width="1.5" stroke-linecap="round" stroke-linejoin="round"/>
<g clip-path="url(#clip3_131_180)">
<path d="M327.321 31.7345C327.296 33.1087 327.701 34.4564 328.479 35.5895C328.852 36.1708 329.289 36.7091 329.781 37.1945L330.518 37.9938L331.621 36.9768C332.027 36.6007 332.398 36.1895 332.732 35.7478C333.605 34.6851 334.118 33.3721 334.197 31.9987C334.181 31.126 333.82 30.295 333.193 29.6878C332.566 29.0806 331.724 28.7465 330.851 28.7587C329.99 28.6946 329.139 28.9702 328.479 29.5264C327.819 30.0827 327.403 30.8754 327.321 31.7345ZM331.918 31.9068C331.858 32.7988 331.517 33.6489 330.944 34.3355L330.641 34.6152L330.361 34.312C329.846 33.5815 329.575 32.7067 329.587 31.8127C329.61 31.6511 329.692 31.5035 329.816 31.3973C329.943 31.2891 330.09 31.2073 330.25 31.1567C330.409 31.1062 330.577 31.0879 330.743 31.103C331.005 31.0554 331.276 31.113 331.496 31.2635C331.716 31.414 331.867 31.6451 331.918 31.9068ZM333.039 4.80353C332.733 4.4869 332.318 4.30025 331.879 4.28252C331.439 4.26479 331.01 4.41734 330.68 4.70836C328.945 6.06491 327.501 7.75691 326.434 9.68348C325.367 11.6101 324.699 13.7318 324.469 15.9221L324.638 20.6129L320.695 22.9749C320.424 23.1338 320.197 23.3583 320.036 23.6277C319.874 23.8971 319.783 24.2027 319.77 24.5166L319.697 26.3182C319.689 26.596 319.742 26.8722 319.854 27.1269C319.965 27.3815 320.131 27.6082 320.341 27.7906C320.551 27.9774 320.8 28.1147 321.071 28.1922C321.341 28.2697 321.625 28.2855 321.902 28.2384L326.419 27.4388L326.7 27.3837L335.242 27.7948L335.454 27.8034L339.892 28.9644C340.165 29.0337 340.449 29.0409 340.725 28.9854C341 28.9299 341.26 28.8132 341.484 28.6439L341.636 28.504C341.996 28.169 342.21 27.7058 342.232 27.2144L342.304 25.4128C342.317 25.0989 342.251 24.7869 342.111 24.5054C341.972 24.2239 341.764 23.9818 341.507 23.8016L337.78 21.1433L338.307 16.6266C338.271 14.4025 337.786 12.2086 336.88 10.1769C335.975 8.14511 334.668 6.31737 333.039 4.80353ZM322.105 24.8629L324.28 23.5707L324.351 25.418L322.121 25.7659L322.105 24.8629ZM339.924 26.5375L337.729 26.011L337.949 24.1755L340.013 25.6388L339.924 26.5375ZM335.98 16.4265L334.9 25.4324L327.163 25.1202L326.812 16.0565C327.219 12.4743 328.997 9.18882 331.773 6.88878C334.349 9.40956 335.855 12.8249 335.98 16.4265Z" fill="white"/>
<path d="M333.768 15.3287C333.773 15.0316 333.718 14.7366 333.607 14.461C333.496 14.1853 333.332 13.9346 333.123 13.7235C332.914 13.5123 332.665 13.3451 332.39 13.2315C332.116 13.1179 331.821 13.0603 331.524 13.062C331.226 13.0245 330.923 13.0492 330.635 13.1346C330.347 13.2199 330.079 13.3641 329.85 13.558C329.62 13.7519 329.433 13.9913 329.3 14.2612C329.168 14.531 329.093 14.8253 329.08 15.1256C329.067 15.4259 329.116 15.7257 329.225 16.006C329.333 16.2863 329.499 16.541 329.711 16.7541C329.923 16.9672 330.177 17.134 330.456 17.244C330.736 17.3541 331.036 17.4049 331.336 17.3934C331.631 17.4183 331.929 17.3846 332.211 17.2941C332.494 17.2037 332.755 17.0584 332.981 16.8666C333.207 16.6747 333.393 16.4401 333.528 16.1761C333.663 15.9122 333.745 15.6242 333.768 15.3287Z" fill="white"/>
</g>
<path d="M76.125 62.0756L71.4375 57.3872L72.7622 56.0625L76.125 59.4244L83.2359 52.3125L84.5625 53.6391L76.125 62.0756Z" fill="white"/>
<path d="M78 43.875C75.4041 43.875 72.8665 44.6448 70.7081 46.087C68.5498 47.5292 66.8675 49.579 65.8741 51.9773C64.8807 54.3756 64.6208 57.0146 65.1272 59.5606C65.6336 62.1066 66.8837 64.4452 68.7192 66.2808C70.5548 68.1163 72.8934 69.3664 75.4394 69.8728C77.9854 70.3792 80.6244 70.1193 83.0227 69.1259C85.421 68.1325 87.4709 66.4503 88.913 64.2919C90.3552 62.1335 91.125 59.5959 91.125 57C91.125 53.519 89.7422 50.1806 87.2808 47.7192C84.8194 45.2578 81.481 43.875 78 43.875ZM78 68.25C75.775 68.25 73.5999 67.5902 71.7498 66.354C69.8998 65.1179 68.4578 63.3609 67.6064 61.3052C66.7549 59.2495 66.5321 56.9875 66.9662 54.8052C67.4003 52.6229 68.4717 50.6184 70.0451 49.045C71.6184 47.4717 73.623 46.4002 75.8052 45.9662C77.9875 45.5321 80.2495 45.7549 82.3052 46.6064C84.3609 47.4578 86.1179 48.8998 87.354 50.7498C88.5902 52.5999 89.25 54.775 89.25 57C89.25 59.9837 88.0647 62.8452 85.955 64.955C83.8452 67.0647 80.9837 68.25 78 68.25Z" fill="white"/>
<g clip-path="url(#clip4_131_180)">
<path d="M443.92 76.6416C444.116 76.6722 444.293 76.7797 444.41 76.9404C444.527 77.1011 444.576 77.3017 444.545 77.4983L444.43 78.2393L448.876 78.9334C449.596 79.0459 450.243 79.44 450.673 80.0291C451.103 80.6182 451.281 81.354 451.169 82.0746L450.32 87.5088C450.208 88.2294 449.814 88.8759 449.225 89.3059C448.635 89.7359 447.9 89.9142 447.179 89.8017L436.805 88.1822C436.448 88.1265 436.105 88.001 435.797 87.813C435.489 87.625 435.221 87.3781 435.008 87.0864C434.578 86.4973 434.399 85.7615 434.512 85.0409L435.36 79.6067C435.473 78.8861 435.867 78.2397 436.456 77.8097C437.045 77.3797 437.781 77.2013 438.501 77.3138L442.947 78.0079L443.063 77.2669C443.094 77.0704 443.201 76.8941 443.362 76.7768C443.523 76.6595 443.723 76.6109 443.92 76.6416ZM434.52 89.8498C433.799 89.7373 433.064 89.9156 432.475 90.3457C431.885 90.7757 431.491 91.4221 431.379 92.1427L431.263 92.8837C430.958 94.8371 431.651 96.6304 433.21 98.0256C434.744 99.3956 437.095 100.373 440.141 100.848C443.187 101.324 445.723 101.111 447.602 100.272C449.513 99.4178 450.719 97.9209 451.024 95.9686L451.14 95.2276C451.252 94.5069 451.074 93.7712 450.644 93.1821C450.214 92.593 449.567 92.1988 448.847 92.0863L434.52 89.8498ZM439.645 84.5771C440.038 84.6385 440.439 84.5412 440.76 84.3066C441.082 84.0721 441.297 83.7195 441.358 83.3264C441.419 82.9334 441.322 82.532 441.088 82.2107C440.853 81.8894 440.501 81.6744 440.107 81.613C439.714 81.5516 439.313 81.6489 438.992 81.8835C438.67 82.118 438.455 82.4706 438.394 82.8637C438.333 83.2568 438.43 83.6581 438.665 83.9794C438.899 84.3008 439.252 84.5157 439.645 84.5771ZM447.286 84.2519C447.348 83.8588 447.25 83.4575 447.016 83.1362C446.781 82.8148 446.429 82.5998 446.036 82.5385C445.643 82.4771 445.241 82.5744 444.92 82.809C444.599 83.0435 444.384 83.3961 444.322 83.7892C444.261 84.1822 444.358 84.5836 444.593 84.9049C444.827 85.2262 445.18 85.4412 445.573 85.5026C445.966 85.5639 446.367 85.4666 446.689 85.2321C447.01 84.9975 447.225 84.6449 447.286 84.2519Z" fill="white"/>
</g>
<path d="M213.04 31.9328C213.238 31.9267 213.432 31.9997 213.577 32.136C213.721 32.2722 213.806 32.4604 213.813 32.6593L213.836 33.4089L218.334 33.2696C219.063 33.247 219.771 33.5149 220.302 34.0144C220.834 34.5139 221.145 35.2041 221.167 35.9331L221.338 41.4305C221.36 42.1595 221.092 42.8676 220.593 43.399C220.093 43.9305 219.403 44.2417 218.674 44.2643L208.179 44.5894C207.818 44.6006 207.459 44.5405 207.121 44.4127C206.783 44.2849 206.474 44.0918 206.211 43.8445C205.679 43.345 205.368 42.6548 205.345 41.9258L205.175 36.4285C205.152 35.6995 205.42 34.9914 205.92 34.4599C206.419 33.9285 207.11 33.6172 207.839 33.5947L212.336 33.4553L212.313 32.7057C212.307 32.5069 212.38 32.3138 212.516 32.1688C212.653 32.0239 212.841 31.939 213.04 31.9328ZM206.242 46.6503C205.513 46.6729 204.823 46.9842 204.323 47.5156C203.824 48.0471 203.556 48.7552 203.578 49.4842L203.602 50.2338C203.663 52.2099 204.675 53.8443 206.465 54.9274C208.226 55.9904 210.717 56.5165 213.798 56.4211C216.88 56.3256 219.333 55.6474 221.024 54.4764C222.744 53.2836 223.653 51.5897 223.592 49.6146L223.569 48.865C223.546 48.136 223.235 47.4458 222.704 46.9463C222.172 46.4468 221.464 46.1788 220.735 46.2014L206.242 46.6503ZM210.304 40.5216C210.702 40.5093 211.078 40.3395 211.351 40.0497C211.623 39.7598 211.769 39.3735 211.757 38.9759C211.745 38.5783 211.575 38.2018 211.285 37.9294C210.995 37.6569 210.609 37.5108 210.211 37.5231C209.814 37.5354 209.437 37.7052 209.165 37.995C208.892 38.2849 208.746 38.6712 208.759 39.0688C208.771 39.4664 208.941 39.8429 209.23 40.1153C209.52 40.3878 209.907 40.534 210.304 40.5216ZM217.754 38.7902C217.742 38.3925 217.572 38.0161 217.282 37.7436C216.992 37.4711 216.606 37.325 216.208 37.3373C215.811 37.3496 215.434 37.5194 215.162 37.8093C214.889 38.0992 214.743 38.4854 214.756 38.883C214.768 39.2807 214.938 39.6571 215.228 39.9296C215.517 40.202 215.904 40.3482 216.301 40.3359C216.699 40.3236 217.075 40.1538 217.348 39.8639C217.62 39.574 217.767 39.1878 217.754 38.7902Z" fill="white"/>
<defs>
<filter id="filter0_dd_131_180" x="99.0793" y="39.0737" width="413.594" height="293.325" filterUnits="userSpaceOnUse" color-interpolation-filters="sRGB">
<feFlood flood-opacity="0" result="BackgroundImageFix"/>
<feColorMatrix in="SourceAlpha" type="matrix" values="0 0 0 0 0 0 0 0 0 0 0 0 0 0 0 0 0 0 127 0" result="hardAlpha"/>
<feOffset dy="4"/>
<feGaussianBlur stdDeviation="2"/>
<feComposite in2="hardAlpha" operator="out"/>
<feColorMatrix type="matrix" values="0 0 0 0 0 0 0 0 0 0 0 0 0 0 0 0 0 0 0.25 0"/>
<feBlend mode="normal" in2="BackgroundImageFix" result="effect1_dropShadow_131_180"/>
<feColorMatrix in="SourceAlpha" type="matrix" values="0 0 0 0 0 0 0 0 0 0 0 0 0 0 0 0 0 0 127 0" result="hardAlpha"/>
<feOffset dy="-4"/>
<feGaussianBlur stdDeviation="2"/>
<feComposite in2="hardAlpha" operator="out"/>
<feColorMatrix type="matrix" values="0 0 0 0 0 0 0 0 0 0 0 0 0 0 0 0 0 0 0.25 0"/>
<feBlend mode="normal" in2="effect1_dropShadow_131_180" result="effect2_dropShadow_131_180"/>
<feBlend mode="normal" in="SourceGraphic" in2="effect2_dropShadow_131_180" result="shape"/>
</filter>
<filter id="filter1_dd_131_180" x="389.53" y="38.5298" width="190.709" height="117.187" filterUnits="userSpaceOnUse" color-interpolation-filters="sRGB">
<feFlood flood-opacity="0" result="BackgroundImageFix"/>
<feColorMatrix in="SourceAlpha" type="matrix" values="0 0 0 0 0 0 0 0 0 0 0 0 0 0 0 0 0 0 127 0" result="hardAlpha"/>
<feOffset dy="6"/>
<feGaussianBlur stdDeviation="4"/>
<feComposite in2="hardAlpha" operator="out"/>
<feColorMatrix type="matrix" values="0 0 0 0 0 0 0 0 0 0 0 0 0 0 0 0 0 0 0.25 0"/>
<feBlend mode="normal" in2="BackgroundImageFix" result="effect1_dropShadow_131_180"/>
<feColorMatrix in="SourceAlpha" type="matrix" values="0 0 0 0 0 0 0 0 0 0 0 0 0 0 0 0 0 0 127 0" result="hardAlpha"/>
<feOffset dy="-6"/>
<feGaussianBlur stdDeviation="4"/>
<feComposite in2="hardAlpha" operator="out"/>
<feColorMatrix type="matrix" values="0 0 0 0 0 0 0 0 0 0 0 0 0 0 0 0 0 0 0.25 0"/>
<feBlend mode="normal" in2="effect1_dropShadow_131_180" result="effect2_dropShadow_131_180"/>
<feBlend mode="normal" in="SourceGraphic" in2="effect2_dropShadow_131_180" result="shape"/>
</filter>
<linearGradient id="paint0_linear_131_180" x1="187" y1="90.0001" x2="187" y2="140" gradientUnits="userSpaceOnUse">
<stop stop-color="#203047"/>
<stop offset="1" stop-color="#4E75AD"/>
</linearGradient>
<linearGradient id="paint1_linear_131_180" x1="441.386" y1="65.3863" x2="441.386" y2="115.386" gradientUnits="userSpaceOnUse">
<stop stop-color="#203047"/>
<stop offset="1" stop-color="#4E75AD"/>
</linearGradient>
<clipPath id="clip0_131_180">
<rect width="20" height="20" fill="white" transform="translate(201.839 244) rotate(8.16037)"/>
</clipPath>
<clipPath id="clip1_131_180">
<rect width="20" height="20" fill="white" transform="translate(139.789 231) rotate(10.921)"/>
</clipPath>
<clipPath id="clip2_131_180">
<rect width="16" height="16" fill="white" transform="translate(335.214 266) rotate(11.5884)"/>
</clipPath>
<clipPath id="clip3_131_180">
<rect width="30" height="30" fill="white" transform="translate(310 20.3406) rotate(-42.6889)"/>
</clipPath>
<clipPath id="clip4_131_180">
<rect width="28" height="28" fill="white" transform="translate(430.319 73) rotate(8.87294)"/>
</clipPath>
</defs>
</svg>
